<svg xmlns="http://www.w3.org/2000/svg" version="1.1" xmlns:xlink="http://www.w3.org/1999/xlink" xmlns:svgjs="http://svgjs.dev/svgjs" width="1500" height="469" viewBox="0 0 1500 469"><g transform="matrix(1,0,0,1,-0.9090909090909918,-0.8196204444087698)"><svg viewBox="0 0 396 124" data-background-color="#ffffff" preserveAspectRatio="xMidYMid meet" height="469" width="1500" xmlns="http://www.w3.org/2000/svg" xmlns:xlink="http://www.w3.org/1999/xlink"><g id="tight-bounds" transform="matrix(1,0,0,1,0.2400000000000091,0.21670135417204506)"><svg viewBox="0 0 395.52 123.56659729165588" height="123.56659729165588" width="395.52"><g><svg viewBox="0 0 673.7088789942857 210.47712819199995" height="123.56659729165588" width="395.52"><g transform="matrix(1,0,0,1,278.1888789942857,33.741421238857114)"><svg viewBox="0 0 395.52 142.99428571428572" height="142.99428571428572" width="395.52"><g id="textblocktransform"><svg viewBox="0 0 395.52 142.99428571428572" height="142.99428571428572" width="395.52" id="textblock"><g><svg viewBox="0 0 395.52 142.99428571428572" height="142.99428571428572" width="395.52"><g transform="matrix(1,0,0,1,0,0)"><svg width="395.52" viewBox="3.86 -37.94 105.61 38.18" height="142.99428571428572" data-palette-color="#0c6997"><path d="M28.86-32.67L24.8-29.05Q23.68-30.32 22.41-30.96 21.14-31.59 19.68-31.69L19.68-31.69 19.68-36.52Q25.15-36.28 28.86-32.67L28.86-32.67ZM19.68 0.24L19.68-4.59Q21.14-4.74 22.44-5.37 23.73-6.01 24.8-7.23L24.8-7.23 28.86-3.66Q27-1.86 24.71-0.88 22.41 0.1 19.68 0.24L19.68 0.24ZM3.86-18.16L3.86-18.16Q3.86-22.51 4.91-25.83 5.96-29.15 7.81-31.45 9.67-33.74 12.18-35.01 14.7-36.28 17.68-36.52L17.68-36.52 17.68-31.64Q16.06-31.4 14.65-30.54 13.23-29.69 12.16-28.08 11.08-26.46 10.47-24 9.86-21.53 9.81-18.16L9.81-18.16Q9.86-14.75 10.47-12.3 11.08-9.86 12.16-8.2 13.23-6.54 14.67-5.66 16.11-4.79 17.68-4.59L17.68-4.59 17.68 0.2Q14.7 0 12.18-1.27 9.67-2.54 7.81-4.83 5.96-7.13 4.91-10.47 3.86-13.82 3.86-18.16ZM36.96 0L36.96-37.94 42.87-37.94 42.87 0 36.96 0ZM57.47-24.51L57.47-24.51Q58.3-23.68 58.76-22.58 59.23-21.48 59.45-20.29 59.67-19.09 59.71-17.87 59.76-16.65 59.76-15.48L59.76-15.48 59.76-0.98 59.76 0 53.81 0 53.81-14.99Q53.81-16.65 53.66-18.16 53.51-19.68 52.98-20.85 52.44-22.02 51.51-22.68 50.58-23.34 48.92-23.34L48.92-23.34Q48.24-23.34 47.09-23.12 45.94-22.9 44.87-22.41L44.87-22.41 44.87-26.17Q46.19-26.86 47.73-27.34 49.27-27.83 50.73-27.83L50.73-27.83Q52.93-27.83 54.44-26.93 55.95-26.03 57.47-24.51ZM71.48-8.3L71.48-8.3Q71.48-6.1 72.38-5.03 73.29-3.96 75-3.76L75-3.76 75 0.2Q74.8 0.24 74.36 0.24L74.36 0.24Q72.7 0.24 71.16-0.2 69.62-0.63 68.45-1.61 67.28-2.59 66.62-4.2 65.96-5.81 65.96-8.15L65.96-8.15Q65.96-10.4 66.91-12.04 67.87-13.67 69.36-14.72 70.84-15.77 72.75-16.28 74.65-16.8 76.61-16.8L76.61-16.8 78.75-16.8 78.75-13.33 77.68-13.33Q76.7-13.33 75.63-13.13 74.56-12.94 73.63-12.4 72.7-11.87 72.09-10.86 71.48-9.86 71.48-8.3ZM86.66-8.54L86.66-8.15Q86.66-7.76 86.71-7.01 86.76-6.25 86.91-5.47 87.06-4.69 87.37-4.05 87.69-3.42 88.23-3.22L88.23-3.22 86.66 0.05Q86.03 0.05 85.32-0.24 84.61-0.54 83.95-1.07 83.3-1.61 82.83-2.27 82.37-2.93 82.12-3.71L82.12-3.71Q81.64-2.49 80.2-1.54 78.75-0.59 77-0.15L77-0.15 77-3.86Q78.17-4.1 79.12-4.81 80.07-5.52 80.76-6.49L80.76-6.49 80.76-16.8Q80.76-19.19 80.51-20.61 80.27-22.02 79.68-22.68 79.1-23.34 78.24-23.51 77.39-23.68 76.22-23.68L76.22-23.68Q75.14-23.68 74.19-23.41 73.24-23.14 72.43-22.78 71.63-22.41 71.02-21.97 70.41-21.53 70.11-21.29L70.11-21.29 67.91-24.66Q68.4-25.2 69.38-25.76 70.36-26.32 71.63-26.76 72.9-27.2 74.38-27.47 75.87-27.73 77.49-27.73L77.49-27.73Q78.95-27.73 80.34-27.44 81.73-27.15 82.88-26.46 84.03-25.78 84.88-24.63 85.74-23.49 86.08-21.78L86.08-21.78Q86.42-20.07 86.54-18.33 86.66-16.6 86.66-14.89L86.66-14.89 86.66-8.54ZM103.85-23.54L103.85-8.35Q103.85-6.69 104.29-5.76 104.73-4.83 105.53-4.35 106.34-3.86 107.34-3.74 108.34-3.61 109.47-3.61L109.47-3.61 109.47 0Q108.83 0.1 108.2 0.15L108.2 0.15Q107.66 0.2 106.9 0.22 106.14 0.24 105.41 0.24L105.41 0.24Q104.68 0.24 103.92 0.2 103.17 0.15 102.63 0.05L102.63 0.05Q100.97-0.24 100.04-1.39 99.11-2.54 98.65-3.93 98.19-5.32 98.06-6.64 97.94-7.96 97.94-8.69L97.94-8.69 97.94-23.54 94.33-23.54 94.33-27.54 97.94-27.54 97.94-35.35 103.85-35.35 103.85-27.54 108.24-27.54 108.24-23.54 103.85-23.54Z" opacity="1" transform="matrix(1,0,0,1,0,0)" fill="#0c6997" class="wordmark-text-0" data-fill-palette-color="primary" id="text-0"></path></svg></g></svg></g></svg></g></svg></g><g><svg viewBox="0 0 244.43135999999996 210.47712819199995" height="210.47712819199995" width="244.43135999999996"><g><svg xmlns="http://www.w3.org/2000/svg" xmlns:xlink="http://www.w3.org/1999/xlink" version="1.1" x="0" y="0" viewBox="5 11.251 90 77.49799999999999" enable-background="new 0 0 100 100" xml:space="preserve" height="210.47712819199995" width="244.43135999999996" class="icon-icon-0" data-fill-palette-color="accent" id="icon-0"><g fill="#0c6997" data-fill-palette-color="accent"><path d="M11.806 11.251H84.12C86.613 11.251 88.724 12.644 89.906 14.649 89.489 14.368 89.071 14.084 88.596 13.898A6.8 6.8 0 0 0 86.128 13.418H13.813C10.064 13.418 7.007 16.471 7.007 20.223V65.975C7.007 66.819 7.172 67.621 7.451 68.363 7.578 68.697 7.789 68.984 7.962 69.288 6.189 68.083 5 66.121 5 63.807V18.056A6.813 6.813 0 0 1 11.806 11.251" fill="#0c6997" data-fill-palette-color="accent"></path><path d="M9.077 22.287V68.037C9.077 68.881 9.238 69.686 9.521 70.425 9.645 70.764 9.852 71.049 10.029 71.35 11.109 73.233 13.014 74.569 15.322 74.761 15.363 74.773 15.416 74.783 15.468 74.795 15.521 74.799 15.567 74.829 15.619 74.829L15.597 74.806C16.15 74.889 17.079 74.912 18.91 74.931L33.462 74.844H42.588C42.897 75.485 43.307 76.101 43.762 76.711 48.83 83.532 62.082 88.521 62.711 88.749L63.531 87.252C63.462 87.198 57.138 82.29 57.138 76.396 57.138 75.883 57.249 75.364 57.351 74.844H88.196C91.947 74.844 95 71.791 95 68.037V22.287C95 19.95 93.778 17.937 91.974 16.714 91.556 16.433 91.138 16.15 90.663 15.963A6.8 6.8 0 0 0 88.196 15.483H15.883A6.81 6.81 0 0 0 9.077 22.287M10.801 22.287A5.086 5.086 0 0 1 15.883 17.211H88.196C89.311 17.211 90.289 17.646 91.126 18.257 92.394 19.181 93.272 20.602 93.272 22.287V68.037A5.08 5.08 0 0 1 88.196 73.116H55.955L55.776 73.745A10 10 0 0 0 55.403 76.432C55.403 77.431 55.575 78.383 55.829 79.294 56.43 81.462 57.603 83.352 58.815 84.88 58.944 85.038 59.064 85.23 59.192 85.381A74 74 0 0 1 54.743 83.171C50.243 80.732 45.354 77.373 43.86 73.658L43.642 73.116H33.456L18.917 73.202S15.815 73.127 15.687 73.104C14.061 73.044 12.71 72.186 11.825 70.958A5.2 5.2 0 0 1 10.923 68.685C10.889 68.466 10.802 68.267 10.802 68.037z" fill="#0c6997" data-fill-palette-color="accent"></path></g></svg></g></svg></g></svg></g><defs></defs></svg><rect width="395.52" height="123.56659729165588" fill="none" stroke="none" visibility="hidden"></rect></g></svg></g></svg>